<?xml version="1.0" encoding="utf-8"?>
<!-- Generator: Adobe Illustrator 22.1.0, SVG Export Plug-In . SVG Version: 6.00 Build 0)  -->
<svg version="1.1" id="Слой_1" xmlns="http://www.w3.org/2000/svg" xmlns:xlink="http://www.w3.org/1999/xlink" x="0px" y="0px"
	 viewBox="0 0 123.4 44" style="enable-background:new 0 0 123.4 44;" xml:space="preserve">
<style type="text/css">
	.st0{fill:#9F4F68;}
</style>
<path id="Фигура_15" class="st0" d="M115.9,32.5c-4-0.2-7-3.5-6.9-7.5s3.5-7,7.5-6.9c3.8,0.2,6.9,3.3,6.9,7.2
	C123.4,29.3,120.1,32.5,115.9,32.5C116,32.5,116,32.5,115.9,32.5L115.9,32.5z M116,21.5c-2.1-0.1-3.8,1.5-3.9,3.6
	c-0.1,2.1,1.5,3.8,3.6,3.9c2.1,0.1,3.8-1.5,3.9-3.6c0,0,0-0.1,0-0.1c0.1-2-1.4-3.7-3.3-3.8C116.1,21.5,116.1,21.5,116,21.5L116,21.5
	z M103.8,32.5c-1,0-1.9-0.8-1.9-1.8c0,0,0-0.1,0-0.1v-6.4c0.2-1.3-0.8-2.5-2.1-2.7c-0.1,0-0.2,0-0.4,0c-1.4-0.1-2.5,1-2.6,2.3
	c0,0.1,0,0.2,0,0.2v6.5c0,1-0.8,1.9-1.8,1.9c0,0-0.1,0-0.1,0c-1,0-1.9-0.8-1.9-1.8c0,0,0,0,0-0.1v-6.4c0.1-1.3-0.8-2.5-2.1-2.7
	c-0.1,0-0.2,0-0.3,0c-1.4-0.1-2.5,1-2.6,2.3c0,0.1,0,0.2,0,0.3v6.4c0,1-0.8,1.9-1.8,1.9c0,0-0.1,0-0.1,0c-1,0-1.9-0.8-1.9-1.8
	c0,0,0-0.1,0-0.1V20c0-1,0.8-1.9,1.8-1.9c0,0,0.1,0,0.1,0c0.8,0,1.6,0.6,1.8,1.4c1-0.9,2.4-1.4,3.8-1.4c1.6-0.1,3.2,0.7,4.1,2
	c1.2-1.3,2.9-2,4.6-2c3.2,0,5.2,2.1,5.2,5.5v6.9c0,1-0.8,1.9-1.8,1.9C103.9,32.5,103.9,32.5,103.8,32.5z M79.7,29.1
	c0.2,0,0.4,0,0.5,0c0.8-0.1,1.6,0.5,1.6,1.3c0,0.1,0,0.1,0,0.2c0,0.6-0.4,1.2-1,1.5c-0.6,0.3-1.3,0.4-2,0.4c-3.6,0-5.6-1.8-5.6-5.2
	v-5.7h-0.8c-0.9,0-1.6-0.7-1.6-1.5s0.7-1.6,1.5-1.6c0,0,0.1,0,0.1,0h0.8v-1.9c0-1,0.9-1.9,1.9-1.8c1,0,1.8,0.8,1.8,1.8v1.9h2.6
	c0.9,0,1.6,0.7,1.6,1.6s-0.7,1.6-1.6,1.6h-2.6V27C77.2,28.5,77.9,29.1,79.7,29.1z M67,15.7c-1.2-0.1-2.2-1.1-2.2-2.4
	c0.1-1.2,1.1-2.2,2.4-2.2c1.2,0.1,2.2,1.1,2.2,2.3C69.3,14.7,68.3,15.7,67,15.7z M59.6,32.5c-1,0-1.9-0.8-1.9-1.9c0,0,0,0,0-0.1
	v-6.4c0.1-1.4-0.9-2.6-2.3-2.7c-0.1,0-0.2,0-0.3,0c-1.4-0.1-2.6,1-2.6,2.4c0,0.1,0,0.2,0,0.2v6.4c0,1-0.8,1.9-1.8,1.9
	c0,0-0.1,0-0.1,0c-1,0-1.9-0.8-1.9-1.8c0,0,0-0.1,0-0.1V12.9c0-1,0.8-1.9,1.8-1.9c0,0,0.1,0,0.1,0c1,0,1.9,0.8,1.9,1.8
	c0,0,0,0.1,0,0.1v6.7c1-1,2.4-1.5,3.8-1.5c3.1,0,5.2,2.2,5.2,5.5v6.9c0,1-0.7,1.9-1.7,1.9C59.6,32.5,59.6,32.5,59.6,32.5L59.6,32.5z
	 M36.9,22c0-3.8,0.4-6.9,0.9-6.9s0.9,3.1,0.9,6.9s-0.4,6.9-0.9,6.9S36.9,25.8,36.9,22L36.9,22z M32.9,36c-1,0-1.8-6.3-1.8-14
	s0.8-14,1.8-14s1.8,6.3,1.8,14S33.9,36,32.9,36z M26.7,38.4c-1.5,0-2.8-7.4-2.8-16.4s1.3-16.4,2.8-16.4s2.8,7.4,2.8,16.4
	S28.3,38.4,26.7,38.4L26.7,38.4z M19.7,42.5c-2,0-3.7-9.2-3.7-20.5s1.6-20.5,3.7-20.5s3.7,9.2,3.7,20.5S21.8,42.5,19.7,42.5
	L19.7,42.5z M12.4,44c-2,0-3.7-9.8-3.7-22v0c-0.2,8-0.8,15.4-0.9,17.3C7.5,43.1,6.2,44,3.2,44H3.1c-1.6,0.1-3-1.1-3.1-2.7V2.7
	c0-0.5,0.2-1,0.4-1.4c0.4-0.7,0.4-0.7,2.6-1.2C3.4,0.1,3.7,0,4.1,0c1.3-0.1,2.6,0.6,3.1,1.9c1.2,3.3,1.6,9.7,1.5,16.4
	C9,7.9,10.5,0,12.4,0c2,0,3.7,9.8,3.7,22S14.4,44,12.4,44L12.4,44z M67,18.1c1,0,1.9,0.8,1.9,1.8c0,0,0,0.1,0,0.1v10.6
	c0,1-0.8,1.9-1.9,1.9s-1.9-0.8-1.9-1.9V20c0-1,0.8-1.9,1.8-1.9C66.9,18.1,67,18.1,67,18.1L67,18.1z"/>
</svg>
