<svg version="1" xmlns="http://www.w3.org/2000/svg" width="1365.333" height="1365.333" viewBox="0 0 1024.000000 1024.000000"><path d="M142 1.1c-11.3 1.3-18 2.7-35.2 6.9-19.3 4.8-24.7 7-29.7 12.5-5 5.4-11.5 18.9-14.1 29.1-2 7.9-2 10.8-1.8 464.4l.3 456.5 2.3 6.5c7.6 21 22.7 36.2 43.1 43.3 7.6 2.7 10.2 3.1 23.2 3.5 24 .7 46.4-2.2 60.7-7.9 29-11.5 44.1-37.4 50.2-86.4 1-7.6 1.7-18.2 7.5-106 5.4-82.9 9.3-154.8 11.9-221.5 3.4-84.5 3-80.7 3.7-35 2.8 171 21.4 327.1 48.4 406.1 5 14.5 15.5 35.3 21 41.6 4.8 5.5 11.4 9.3 16 9.3 4.3 0 10.9-3.6 15.3-8.4 27.4-29.7 51.8-143 63.1-293.6 3-40.1 5.9-92.3 6.2-113.5l.2-9 .8 12c.4 6.6 1.2 21.7 1.9 33.5 8.8 169.7 35.9 304.9 67.6 336.5 36.5 36.6 73.4-62 90.9-242.5 10.6-110.5 12.9-251.8 6-373.5C591 180.9 561.4 51 526.4 36.4c-34.6-14.5-67.1 82.9-82.9 249.1-3.6 38.1-5.9 71.8-8.2 122l-.7 16-1.2-29C423.4 157 387.3-7.2 346.7.4c-26.8 5-51.4 79.8-67.1 204.6-6.1 47.8-11 105.7-13.6 159-1.6 34-1.6 34.1-1.8 10.5-1.4-152.4-13.3-266.4-34.1-325.4-8.2-23.5-23.3-38.5-45.9-45.9-6.4-2-10.1-2.5-21.2-2.8-7.4-.1-16.9.2-21 .7zM679.1 130.7c-4.1.8-12.2 10.2-16.8 19.3-18.8 38.2-33.6 121.5-40.8 229-3 45.7-3.8 74.9-3.8 133 0 58.1.8 87.3 3.8 133 8.4 125.8 27.7 219.6 50 242.5 8.3 8.5 14.9 8.2 23.5-1.1 43.4-47.6 66-335 44-560.4-10.7-109.5-30.6-184.7-51.4-194.1-4.2-1.9-4.4-1.9-8.5-1.2zM821.1 189.7c-15.7 15.9-27.9 94.3-34.3 220.8-1.7 33.5-1.7 169.5 0 203 6.8 134.8 20.1 214.4 37.4 223.6 2.9 1.5 7.1-.5 10.2-4.9 15.6-22.8 27.8-109.8 32.7-233.2 1.4-36.7 1.4-137.3 0-174-5.8-146.2-21.6-238.5-41-239-.7 0-3 1.7-5 3.7zM938.9 352c-4.8 2.7-10.5 25.2-13.9 54.8-3.7 32.9-4.5 51.4-4.5 105.2 0 53.8.8 72.3 4.5 105.2 3.4 29.6 9.1 52.1 13.9 54.8 12.6 7 22.4-63.1 22.4-160s-9.8-167-22.4-160z"/></svg>